<svg width="42" height="49" viewBox="0 0 42 49" fill="none" xmlns="http://www.w3.org/2000/svg">
<path d="M6.20149 20.66C8.48182 20.66 10.3358 17.5717 10.3358 13.7733C10.3358 9.97489 8.48182 6.88665 6.20149 6.88665C3.92115 6.88665 2.06716 9.97489 2.06716 13.7733C2.06716 17.5717 3.92115 20.66 6.20149 20.66ZM35.1418 20.66C37.4221 20.66 39.2761 17.5717 39.2761 13.7733C39.2761 9.97489 37.4221 6.88665 35.1418 6.88665C32.8614 6.88665 31.0074 9.97489 31.0074 13.7733C31.0074 17.5717 32.8614 20.66 35.1418 20.66ZM37.2089 24.1033H33.0746C31.9377 24.1033 30.9105 24.8673 30.1612 26.1047C32.7645 28.4828 34.612 32.7762 35.0126 37.8766H39.2761C40.4195 37.8766 41.3432 36.3379 41.3432 34.4333V30.9899C41.3432 27.1915 39.4893 24.1033 37.2089 24.1033ZM20.6716 24.1033C24.6703 24.1033 27.9067 18.7123 27.9067 12.0516C27.9067 5.39096 24.6703 0 20.6716 0C16.673 0 13.4366 5.39096 13.4366 12.0516C13.4366 18.7123 16.673 24.1033 20.6716 24.1033ZM25.6328 27.5466H25.0966C23.753 28.6226 22.2608 29.2683 20.6716 29.2683C19.0825 29.2683 17.5967 28.6226 16.2466 27.5466H15.7104C11.6019 27.5466 8.26865 33.099 8.26865 39.9426V43.0416C8.26865 45.8931 9.65752 48.2066 11.3694 48.2066H29.9738C31.6857 48.2066 33.0746 45.8931 33.0746 43.0416V39.9426C33.0746 33.099 29.7413 27.5466 25.6328 27.5466ZM11.1821 26.1047C10.4327 24.8673 9.40559 24.1033 8.26865 24.1033H4.13432C1.85399 24.1033 0 27.1915 0 30.9899V34.4333C0 36.3379 0.923763 37.8766 2.06716 37.8766H6.32422C6.7312 32.7762 8.57872 28.4828 11.1821 26.1047Z" fill="#5FBEF4"/>
</svg>
