<svg width="43" height="49" viewBox="0 0 43 49" fill="none" xmlns="http://www.w3.org/2000/svg">
<path d="M6.48447 20.66C8.8134 20.66 10.7069 17.5717 10.7069 13.7733C10.7069 9.97489 8.8134 6.88665 6.48447 6.88665C4.15553 6.88665 2.26203 9.97489 2.26203 13.7733C2.26203 17.5717 4.15553 20.66 6.48447 20.66ZM36.0415 20.66C38.3704 20.66 40.2639 17.5717 40.2639 13.7733C40.2639 9.97489 38.3704 6.88665 36.0415 6.88665C33.7126 6.88665 31.8191 9.97489 31.8191 13.7733C31.8191 17.5717 33.7126 20.66 36.0415 20.66ZM38.1527 24.1033H33.9303C32.7691 24.1033 31.7201 24.8673 30.9548 26.1047C33.6136 28.4828 35.5005 32.7762 35.9095 37.8766H40.2639C41.4317 37.8766 42.3751 36.3379 42.3751 34.4333V30.9899C42.3751 27.1915 40.4816 24.1033 38.1527 24.1033ZM21.263 24.1033C25.3469 24.1033 28.6522 18.7123 28.6522 12.0516C28.6522 5.39096 25.3469 0 21.263 0C17.1791 0 13.8737 5.39096 13.8737 12.0516C13.8737 18.7123 17.1791 24.1033 21.263 24.1033ZM26.3299 27.5466H25.7823C24.41 28.6227 22.886 29.2683 21.263 29.2683C19.64 29.2683 18.1225 28.6227 16.7437 27.5466H16.1961C12 27.5466 8.59568 33.099 8.59568 39.9426V43.0416C8.59568 45.8931 10.0142 48.2066 11.7625 48.2066H30.7635C32.5118 48.2066 33.9303 45.8931 33.9303 43.0416V39.9426C33.9303 33.099 30.5259 27.5466 26.3299 27.5466ZM11.5712 26.1047C10.8059 24.8673 9.75685 24.1033 8.59568 24.1033H4.37325C2.04432 24.1033 0.150818 27.1915 0.150818 30.9899V34.4333C0.150818 36.3379 1.09427 37.8766 2.26203 37.8766H6.60982C7.02547 32.7762 8.91237 28.4828 11.5712 26.1047Z" fill="black"/>
</svg>
