<svg width="35" height="47" viewBox="0 0 35 47" fill="none" xmlns="http://www.w3.org/2000/svg">
<path d="M0 42.5938C0 45.0264 1.67969 47 3.75 47H31.25C33.3203 47 35 45.0264 35 42.5938V17.625H0V42.5938ZM25 24.6016C25 23.9957 25.4219 23.5 25.9375 23.5H29.0625C29.5781 23.5 30 23.9957 30 24.6016V28.2734C30 28.8793 29.5781 29.375 29.0625 29.375H25.9375C25.4219 29.375 25 28.8793 25 28.2734V24.6016ZM25 36.3516C25 35.7457 25.4219 35.25 25.9375 35.25H29.0625C29.5781 35.25 30 35.7457 30 36.3516V40.0234C30 40.6293 29.5781 41.125 29.0625 41.125H25.9375C25.4219 41.125 25 40.6293 25 40.0234V36.3516ZM15 24.6016C15 23.9957 15.4219 23.5 15.9375 23.5H19.0625C19.5781 23.5 20 23.9957 20 24.6016V28.2734C20 28.8793 19.5781 29.375 19.0625 29.375H15.9375C15.4219 29.375 15 28.8793 15 28.2734V24.6016ZM15 36.3516C15 35.7457 15.4219 35.25 15.9375 35.25H19.0625C19.5781 35.25 20 35.7457 20 36.3516V40.0234C20 40.6293 19.5781 41.125 19.0625 41.125H15.9375C15.4219 41.125 15 40.6293 15 40.0234V36.3516ZM5 24.6016C5 23.9957 5.42188 23.5 5.9375 23.5H9.0625C9.57812 23.5 10 23.9957 10 24.6016V28.2734C10 28.8793 9.57812 29.375 9.0625 29.375H5.9375C5.42188 29.375 5 28.8793 5 28.2734V24.6016ZM5 36.3516C5 35.7457 5.42188 35.25 5.9375 35.25H9.0625C9.57812 35.25 10 35.7457 10 36.3516V40.0234C10 40.6293 9.57812 41.125 9.0625 41.125H5.9375C5.42188 41.125 5 40.6293 5 40.0234V36.3516ZM31.25 5.875H27.5V1.46875C27.5 0.660937 26.9375 0 26.25 0H23.75C23.0625 0 22.5 0.660937 22.5 1.46875V5.875H12.5V1.46875C12.5 0.660937 11.9375 0 11.25 0H8.75C8.0625 0 7.5 0.660937 7.5 1.46875V5.875H3.75C1.67969 5.875 0 7.84863 0 10.2812V14.6875H35V10.2812C35 7.84863 33.3203 5.875 31.25 5.875Z" fill="#5FBEF4"/>
</svg>
