<svg width="37" height="47" viewBox="0 0 37 47" fill="none" xmlns="http://www.w3.org/2000/svg">
<path d="M0.601639 42.5938C0.601639 45.0264 2.31712 47 4.43156 47H32.5176C34.6321 47 36.3475 45.0264 36.3475 42.5938V17.625H0.601639V42.5938ZM26.1344 24.6016C26.1344 23.9957 26.5653 23.5 27.0919 23.5H30.2835C30.8101 23.5 31.241 23.9957 31.241 24.6016V28.2734C31.241 28.8793 30.8101 29.375 30.2835 29.375H27.0919C26.5653 29.375 26.1344 28.8793 26.1344 28.2734V24.6016ZM26.1344 36.3516C26.1344 35.7457 26.5653 35.25 27.0919 35.25H30.2835C30.8101 35.25 31.241 35.7457 31.241 36.3516V40.0234C31.241 40.6293 30.8101 41.125 30.2835 41.125H27.0919C26.5653 41.125 26.1344 40.6293 26.1344 40.0234V36.3516ZM15.9213 24.6016C15.9213 23.9957 16.3522 23.5 16.8788 23.5H20.0704C20.597 23.5 21.0279 23.9957 21.0279 24.6016V28.2734C21.0279 28.8793 20.597 29.375 20.0704 29.375H16.8788C16.3522 29.375 15.9213 28.8793 15.9213 28.2734V24.6016ZM15.9213 36.3516C15.9213 35.7457 16.3522 35.25 16.8788 35.25H20.0704C20.597 35.25 21.0279 35.7457 21.0279 36.3516V40.0234C21.0279 40.6293 20.597 41.125 20.0704 41.125H16.8788C16.3522 41.125 15.9213 40.6293 15.9213 40.0234V36.3516ZM5.7082 24.6016C5.7082 23.9957 6.13906 23.5 6.66568 23.5H9.85727C10.3839 23.5 10.8148 23.9957 10.8148 24.6016V28.2734C10.8148 28.8793 10.3839 29.375 9.85727 29.375H6.66568C6.13906 29.375 5.7082 28.8793 5.7082 28.2734V24.6016ZM5.7082 36.3516C5.7082 35.7457 6.13906 35.25 6.66568 35.25H9.85727C10.3839 35.25 10.8148 35.7457 10.8148 36.3516V40.0234C10.8148 40.6293 10.3839 41.125 9.85727 41.125H6.66568C6.13906 41.125 5.7082 40.6293 5.7082 40.0234V36.3516ZM32.5176 5.875H28.6877V1.46875C28.6877 0.660937 28.1132 0 27.4111 0H24.8578C24.1556 0 23.5811 0.660937 23.5811 1.46875V5.875H13.368V1.46875C13.368 0.660937 12.7935 0 12.0914 0H9.53811C8.83596 0 8.26147 0.660937 8.26147 1.46875V5.875H4.43156C2.31712 5.875 0.601639 7.84863 0.601639 10.2812V14.6875H36.3475V10.2812C36.3475 7.84863 34.6321 5.875 32.5176 5.875Z" fill="black"/>
</svg>
