<svg width="36" height="42" viewBox="0 0 36 42" fill="none" xmlns="http://www.w3.org/2000/svg">
<path d="M35.3438 9.35556L26.1656 1.5079C25.7438 1.14755 25.1719 0.947357 24.5719 0.947357H24V11.1974H36V10.7089C36 10.2044 35.7656 9.71591 35.3438 9.35556ZM21 11.838V0.947357H2.25C1.00312 0.947357 0 1.80419 0 2.86923V40.0255C0 41.0905 1.00312 41.9474 2.25 41.9474H33.75C34.9969 41.9474 36 41.0905 36 40.0255V13.7599H23.25C22.0125 13.7599 21 12.895 21 11.838ZM6 6.71298C6 6.35904 6.33563 6.07236 6.75 6.07236H14.25C14.6644 6.07236 15 6.35904 15 6.71298V7.99423C15 8.34818 14.6644 8.63486 14.25 8.63486H6.75C6.33563 8.63486 6 8.34818 6 7.99423V6.71298ZM6 13.1192V11.838C6 11.484 6.33563 11.1974 6.75 11.1974H14.25C14.6644 11.1974 15 11.484 15 11.838V13.1192C15 13.4732 14.6644 13.7599 14.25 13.7599H6.75C6.33563 13.7599 6 13.4732 6 13.1192ZM19.5 34.2502V36.1817C19.5 36.5357 19.1644 36.8224 18.75 36.8224H17.25C16.8356 36.8224 16.5 36.5357 16.5 36.1817V34.2366C15.4416 34.1902 14.4122 33.8747 13.5591 33.3277C13.1934 33.0931 13.1747 32.6255 13.5056 32.3556L14.6072 31.4579C14.8669 31.2465 15.2531 31.2369 15.5569 31.3995C15.9197 31.5933 16.3312 31.6974 16.7587 31.6974H19.3941C20.0034 31.6974 20.5003 31.2233 20.5003 30.6411C20.5003 30.1647 20.1619 29.7451 19.6781 29.6217L15.4594 28.5407C13.7166 28.0938 12.4988 26.6652 12.4988 25.0661C12.4988 23.1026 14.2847 21.5074 16.4991 21.457V19.5255C16.4991 19.1715 16.8347 18.8849 17.2491 18.8849H18.7491C19.1634 18.8849 19.4991 19.1715 19.4991 19.5255V21.4706C20.5575 21.517 21.5869 21.8317 22.44 22.3795C22.8056 22.6141 22.8244 23.0818 22.4934 23.3516L21.3919 24.2493C21.1322 24.4607 20.7459 24.4703 20.4422 24.3077C20.0794 24.1132 19.6678 24.0099 19.2403 24.0099H16.605C15.9956 24.0099 15.4988 24.4839 15.4988 25.0661C15.4988 25.5426 15.8372 25.9622 16.3209 26.0855L20.5397 27.1665C22.2825 27.6134 23.5003 29.042 23.5003 30.6411C23.5003 32.6054 21.7144 34.1998 19.5 34.2502Z" fill="black"/>
</svg>
