<svg width="33" height="45" viewBox="0 0 33 45" fill="none" xmlns="http://www.w3.org/2000/svg">
<path d="M8.99828 0.59824C8.92642 0.48369 8.84104 0.392802 8.74703 0.330786C8.65301 0.26877 8.55222 0.236847 8.45042 0.236847C8.34863 0.236847 8.24783 0.26877 8.15382 0.330786C8.05981 0.392802 7.97443 0.48369 7.90257 0.59824L3.79819 7.08075L2.3351 4.81581C2.26325 4.70126 2.17787 4.61037 2.08385 4.54836C1.98984 4.48634 1.88905 4.45442 1.78725 4.45442C1.68546 4.45442 1.58466 4.48634 1.49065 4.54836C1.39664 4.61037 1.31126 4.70126 1.2394 4.81581L0.227485 6.42543C0.15538 6.53958 0.0981687 6.67523 0.0591317 6.82458C0.0200947 6.97393 0 7.13406 0 7.29577C0 7.45749 0.0200947 7.61762 0.0591317 7.76697C0.0981687 7.91632 0.15538 8.05196 0.227485 8.16612L3.29481 13.0195C3.44792 13.2508 3.65108 13.3797 3.86232 13.3797C4.07356 13.3797 4.27673 13.2508 4.42983 13.0195L5.43466 11.4202L10.0882 4.02841C10.2332 3.79789 10.3151 3.48584 10.3162 3.15996C10.3173 2.83409 10.2374 2.52067 10.094 2.28773L8.99828 0.59824ZM8.99828 16.8982C8.92642 16.7837 8.84104 16.6928 8.74703 16.6307C8.65301 16.5687 8.55222 16.5368 8.45042 16.5368C8.34863 16.5368 8.24783 16.5687 8.15382 16.6307C8.05981 16.6928 7.97443 16.7837 7.90257 16.8982L3.79819 23.4227L2.3351 21.1598C2.26325 21.0453 2.17787 20.9544 2.08385 20.8923C1.98984 20.8303 1.88905 20.7984 1.78725 20.7984C1.68546 20.7984 1.58466 20.8303 1.49065 20.8923C1.39664 20.9544 1.31126 21.0453 1.2394 21.1598L0.227485 22.7663C0.15538 22.8805 0.0981687 23.0161 0.0591317 23.1655C0.0200947 23.3148 0 23.475 0 23.6367C0 23.7984 0.0200947 23.9585 0.0591317 24.1079C0.0981687 24.2572 0.15538 24.3929 0.227485 24.507L3.28708 29.3707C3.44008 29.6018 3.64313 29.7307 3.85427 29.7307C4.0654 29.7307 4.26846 29.6018 4.42145 29.3707L5.43337 27.7642L10.0869 20.3693C10.2313 20.1404 10.313 19.8301 10.3141 19.506C10.3152 19.1819 10.2356 18.8702 10.0927 18.6389L8.99828 16.8982ZM4.12497 34.6439C2.4176 34.6439 0.993189 36.8454 0.993189 39.5588C0.993189 42.2722 2.41889 44.4737 4.12497 44.4737C4.94548 44.4737 5.73239 43.9559 6.31258 43.0342C6.89278 42.1124 7.21872 40.8623 7.21872 39.5588C7.21872 38.2553 6.89278 37.0052 6.31258 36.0835C5.73239 35.1618 4.94548 34.6439 4.12497 34.6439ZM31.9688 36.2822H13.4062C13.1327 36.2822 12.8704 36.4548 12.677 36.7621C12.4836 37.0693 12.375 37.486 12.375 37.9205V41.1971C12.375 41.6316 12.4836 42.0483 12.677 42.3556C12.8704 42.6628 13.1327 42.8354 13.4062 42.8354H31.9688C32.2423 42.8354 32.5046 42.6628 32.698 42.3556C32.8913 42.0483 33 41.6316 33 41.1971V37.9205C33 37.486 32.8913 37.0693 32.698 36.7621C32.5046 36.4548 32.2423 36.2822 31.9688 36.2822ZM31.9688 3.51644H13.4062C13.1327 3.51644 12.8704 3.68905 12.677 3.99629C12.4836 4.30353 12.375 4.72023 12.375 5.15473V8.43131C12.375 8.86582 12.4836 9.28252 12.677 9.58976C12.8704 9.897 13.1327 10.0696 13.4062 10.0696H31.9688C32.2423 10.0696 32.5046 9.897 32.698 9.58976C32.8913 9.28252 33 8.86582 33 8.43131V5.15473C33 4.72023 32.8913 4.30353 32.698 3.99629C32.5046 3.68905 32.2423 3.51644 31.9688 3.51644ZM31.9688 19.8993H13.4062C13.1327 19.8993 12.8704 20.0719 12.677 20.3792C12.4836 20.6864 12.375 21.1031 12.375 21.5376V24.8142C12.375 25.2487 12.4836 25.6654 12.677 25.9727C12.8704 26.2799 13.1327 26.4525 13.4062 26.4525H31.9688C32.2423 26.4525 32.5046 26.2799 32.698 25.9727C32.8913 25.6654 33 25.2487 33 24.8142V21.5376C33 21.1031 32.8913 20.6864 32.698 20.3792C32.5046 20.0719 32.2423 19.8993 31.9688 19.8993Z" fill="black"/>
</svg>
